<?xml version="1.0" encoding="utf-8"?>
<!-- Generator: Adobe Illustrator 19.0.1, SVG Export Plug-In . SVG Version: 6.00 Build 0)  -->
<svg version="1.1" id="Слой_1" xmlns="http://www.w3.org/2000/svg" xmlns:xlink="http://www.w3.org/1999/xlink" x="0px" y="0px"
	 viewBox="0 0 160 160" style="enable-background:new 0 0 160 160;" xml:space="preserve">
<style type="text/css">
	.st0{fill:#DF975C;}
</style>
<path class="st0" d="M9,105.9V79.6c0-3.7,2.6-6.9,6.1-7.6l7.1-2l4.1-1.2c0.5-0.1,0.9-0.6,0.9-1.1v-4.8L27,62.7
	c-2.1-1.6-3.4-4.1-3.7-6.7c-0.1-0.9-0.1-1.6-0.2-2h-0.8c-0.8,0-1.5-0.6-1.6-1.3L20,48.5c-0.2-1.2,0.8-2.3,2-2.3l0.2-7.7
	c0-4.7,3.9-8.6,8.7-8.6h5.6c4.8,0,8.7,3.8,8.7,8.6l0.2,7.7c1.2,0,2.2,1.1,2,2.3l-0.6,4c-0.1,0.8-0.8,1.3-1.6,1.3h-0.8
	c-0.1,0.4-0.1,1.2-0.2,2c-0.2,2.6-1.6,5.1-3.7,6.7l-0.3,0.2v4.8c0,0.6,0.4,1,0.9,1.1l3.2,0.9c1.8-1.1,3.7-2,5.8-2.4h0.1l-6.1-1.7
	v-0.9c2.1-2.1,3.4-4.7,3.8-7.5c1.4-0.8,2.5-2.3,2.7-3.9l0.6-4c0.3-1.7-0.2-3.5-1.4-4.8c-0.2-0.2-0.4-0.5-0.6-0.6l0.1-5.2
	c0-6.9-5.7-12.5-12.7-12.5H31c-7,0-12.7,5.6-12.7,12.5l-0.1,5.2c-0.2,0.2-0.4,0.4-0.7,0.7c-1.1,1.3-1.6,3.1-1.4,4.8l0.6,4
	c0.3,1.7,1.3,3.1,2.7,4c0.4,2.9,1.8,5.5,3.8,7.5v0.8l-2.1,0.6l-7,2C8.8,69.3,5,74.1,5,79.6v26.3v2.3l2,1.2l28.6,16.9v-4.6L9,105.9z"
	/>
<path class="st0" d="M145.8,68.2l-9.1-2.6v-0.9c2-2,3.4-4.7,3.8-7.5c1.4-0.8,2.4-2.2,2.7-4l0.6-4c0.3-1.7-0.2-3.5-1.4-4.8
	c-0.2-0.2-0.4-0.5-0.6-0.7l-0.1-5.2c0-6.9-5.7-12.5-12.7-12.5h-5.6c-7,0-12.7,5.6-12.7,12.5l-0.1,5.2c-0.2,0.2-0.4,0.4-0.6,0.6
	c-1.1,1.3-1.6,3.1-1.4,4.8l0.6,4c0.3,1.7,1.3,3.2,2.7,4c0.4,2.8,1.8,5.5,3.8,7.5v0.9l-2.1,0.6l-3.8,1.1l0,0c2.1,0.5,4.1,1.3,5.9,2.5
	l3-0.9c0.5-0.1,0.9-0.6,0.9-1.1v-4.8l-0.3-0.2c-2.1-1.6-3.5-4.1-3.7-6.7c-0.1-0.9-0.2-1.7-0.2-2h-0.8c-0.8,0-1.5-0.6-1.6-1.3l-0.6-4
	c-0.2-1.2,0.8-2.3,2-2.3l0.2-7.7c0-4.7,3.9-8.5,8.7-8.5h5.6c4.8,0,8.7,3.8,8.7,8.5l0.2,7.7c1.2,0,2.2,1.1,2,2.3l-0.6,4
	c-0.1,0.8-0.8,1.3-1.6,1.3h-0.8c-0.1,0.4-0.1,1.2-0.2,2c-0.2,2.6-1.6,5.1-3.7,6.7l-0.3,0.2v4.8c0,0.5,0.4,1,0.9,1.1l11.2,3.2
	c3.6,0.7,6.1,3.9,6.1,7.6v26.3l-26.5,15.6v4.6l28.5-16.8l2-1.2v-2.3V79.7C155,74.2,151.2,69.4,145.8,68.2z"/>
<path class="st0" d="M67.4,29.5c2.8,0,5.2-1.5,6.5-4l0.1-0.2c2.5,2.6,6,4.1,9.7,4.1h10.9v-3.6v-0.4H83.7c-3.4,0-6.6-1.9-8.2-4.8
	l-1.8-3.3l-3.3,6.3c-0.6,1.1-1.7,1.8-3,1.8h-1.9l-0.1,4.1l0,0H67.4z"/>
<path class="st0" d="M109.2,70.2l-15.3-4.4v-1.2V62c3.4-3.1,5.5-7.3,5.9-11.9c2.1-0.8,3.6-2.7,4-5l1-6.1c0.3-2-0.3-4.1-1.6-5.6
	c-0.4-0.5-0.9-0.9-1.4-1.3l-0.2-8.9c0-9.3-7.7-16.9-17.2-16.9h-8.5c-9.5,0-17.2,7.6-17.2,16.9l-0.2,8.9c-0.5,0.4-1,0.8-1.4,1.3
	c-1.3,1.5-1.9,3.6-1.6,5.6l1,6.1c0.4,2.3,1.9,4.1,4,4.9c0.4,4.6,2.6,8.8,5.9,11.9v3.8L61.7,67l-10.6,3c-7.2,1.5-12.3,8-12.3,15.4
	v39.8v2.3l2,1.2l38,22.5l2.1,1.2l2-1.2l37-22.5l1.9-1.2v-2.3V85.6C121.5,78.2,116.3,71.8,109.2,70.2z M117.5,125.4l-37,22.5
	l-38-22.5V85.6c0-5.6,3.9-10.4,9.3-11.5L62.6,71l6.2-1.8c0.8-0.2,1.4-0.9,1.4-1.7V65l0.3,0.2c2.1,1.4,4.5,2.2,7,2.2h2v-4h-2
	c-1.7,0-3.3-0.5-4.7-1.5l-2.6-1.8l0,0l-0.4-0.3c-3.2-2.5-5.2-6.2-5.6-10.2c-0.1-1.3-0.2-2.5-0.3-3.1h-1.3c-1.2,0-2.2-0.9-2.4-2
	l-1-6.1c-0.3-1.8,1.1-3.5,3-3.5l0.3-11.7c0-7.2,5.9-13,13.2-13h8.5c7.3,0,13.2,5.8,13.2,13l0.3,11.7c1.9,0,3.3,1.6,3,3.5l-1,6.1
	c-0.2,1.2-1.2,2-2.4,2H96c-0.1,0.6-0.2,1.8-0.3,3.1c-0.3,4-2.4,7.7-5.6,10.2l-0.4,0.3v4.5v2.9V75h4v-5.1L108,74
	c5.4,1.1,9.3,5.9,9.3,11.5v39.9H117.5z"/>
</svg>
