<?xml version="1.0" encoding="utf-8"?>
<!-- Generator: Adobe Illustrator 19.0.1, SVG Export Plug-In . SVG Version: 6.00 Build 0)  -->
<svg version="1.1" id="Слой_1" xmlns="http://www.w3.org/2000/svg" xmlns:xlink="http://www.w3.org/1999/xlink" x="0px" y="0px"
	 viewBox="0 0 160 160" style="enable-background:new 0 0 160 160;" xml:space="preserve">
<style type="text/css">
	.st0{fill:#6ADBC7;stroke:#6ADBC7;stroke-width:0.5;stroke-miterlimit:10;}
</style>
<g>
	<path class="st0" d="M61.5,113.8l17,10.3l50.8-66.7L32.2,96.1l17.9,10.7v21.7L61.5,113.8z M58.6,112l-5.4,6.7v-11.9l19.7-10.3
		L58.6,112L58.6,112z M39.6,96.5l79.7-31.8l-41.6,54.6l-13.9-8.3L89,84.2l-37.4,19.5L39.6,96.5z"/>
	<path class="st0" d="M145.2,22.2H14.9c-4.5,0-8.3,3.6-8.3,8.3v123.8h146.6v-124C153.5,25.8,149.7,22.2,145.2,22.2z M14.9,25.6
		h130.2c2.7,0,4.7,2.2,4.7,4.9v9.2H10.2v-9.4C10.2,27.8,12.3,25.6,14.9,25.6z M10.2,151V42.8h139.9v47.9h-1.8v3.4h1.8v57.1H10.2V151
		z"/>
	<rect x="134.7" y="31" class="st0" width="3.4" height="3.4"/>
	<rect x="126.2" y="31" class="st0" width="3.4" height="3.4"/>
	<rect x="117.7" y="31" class="st0" width="3.4" height="3.4"/>
	<rect x="21" y="31" class="st0" width="86.2" height="3.4"/>
	<rect x="59.9" y="129.7" class="st0" width="3.4" height="3.4"/>
	<rect x="67.8" y="129.7" class="st0" width="3.4" height="3.4"/>
	<path class="st0" d="M54.6,127l-2.7,2c0.7,1.1,1.8,2,2.9,2.7l1.8-2.9C55.7,128.3,55,127.9,54.6,127z"/>
	<path class="st0" d="M83,128.5l0.7,3.4c1.1-0.2,2.2-0.7,3.4-0.9l-0.9-3.1C85,128.1,83.9,128.3,83,128.5z"/>
	<path class="st0" d="M124.8,95.9l1.6,2.9c0.9-0.4,2-0.9,2.9-1.3l-1.3-3.1C126.8,94.7,125.9,95.2,124.8,95.9z"/>
	<path class="st0" d="M112.3,105.9l2.7,2.2c0.7-0.9,1.3-1.6,2.2-2.5l-2.5-2.2C113.9,104.1,113,105,112.3,105.9z"/>
	<path class="st0" d="M118.1,100.3l2,2.7c0.9-0.7,1.8-1.3,2.5-2l-2-2.7C119.9,98.8,119,99.4,118.1,100.3z"/>
	<path class="st0" d="M75.4,129.7l0.2,3.4c1.1,0,2.2-0.2,3.4-0.2l-0.4-3.4C77.6,129.4,76.5,129.4,75.4,129.7z"/>
	<path class="st0" d="M132.4,92.5l1.1,3.1c1.1-0.2,2-0.7,3.1-0.9l-0.9-3.1C134.7,91.8,133.5,92.3,132.4,92.5z"/>
	<path class="st0" d="M140.3,90.9l0.4,3.4c1.1-0.2,2.2-0.2,3.1-0.2v-3.4C142.7,90.7,141.4,90.7,140.3,90.9z"/>
	<polygon class="st0" points="107.6,112.4 110.3,114.2 112.3,111.7 109.6,109.7 	"/>
	<path class="st0" d="M96.6,122.7l1.8,2.9c0.9-0.7,2-1.3,2.9-2l-2-2.7C98.4,121.4,97.5,122,96.6,122.7z"/>
	<path class="st0" d="M90.1,126.3l1.3,3.1c1.1-0.4,2-0.9,3.1-1.6L93,125C91.9,125.4,91,125.8,90.1,126.3z"/>
	<path class="st0" d="M102.7,118l2.2,2.5c0.9-0.9,1.6-1.6,2.5-2.5l-2.5-2.2C104.2,116.4,103.3,117.3,102.7,118z"/>
</g>
</svg>
