<?xml version="1.0" encoding="utf-8"?>
<!-- Generator: Adobe Illustrator 19.0.1, SVG Export Plug-In . SVG Version: 6.00 Build 0)  -->
<svg version="1.1" id="Слой_1" xmlns="http://www.w3.org/2000/svg" xmlns:xlink="http://www.w3.org/1999/xlink" x="0px" y="0px"
	 viewBox="0 0 160 160" style="enable-background:new 0 0 160 160;" xml:space="preserve">
<style type="text/css">
	.st0{display:none;}
	.st1{display:inline;stroke:#000000;stroke-width:0.5;stroke-miterlimit:10;}
	.st2{display:inline;}
	.st3{fill:#68C4D2;}
</style>
<g class="st0">
	<path class="st1" d="M82.6,124.5c0.7,0.5,0.9,1.1,0.9,1.8h3.4c0-1.8-0.7-3.4-2-4.5c-0.9-0.7-2-1.1-3.2-1.4v-3.2h-3.4v3.2
		c-1.1,0.2-2.3,0.7-3.2,1.4c-1.4,1.1-2,2.7-2,4.5s0.7,3.4,2,4.5s2.9,1.8,4.7,1.8c0.9,0,1.8,0.2,2.5,0.9c0.7,0.5,0.9,1.1,0.9,1.8
		s-0.2,1.4-0.9,1.8c-1.4,1.1-3.8,1.1-5.2,0c-0.2-0.5-0.5-1.1-0.5-1.8h-3.4c0,1.8,0.7,3.4,2,4.5c0.9,0.7,2,1.4,3.2,1.6v3.2h3.4v-3.4
		c1.1-0.2,2.3-0.7,3.2-1.6c1.4-1.1,2-2.7,2-4.5s-0.7-3.4-2-4.5c-1.4-1.1-2.9-1.8-4.7-1.8c-0.9,0-1.8-0.2-2.5-0.9
		c-0.9-0.2-1.1-0.9-1.1-1.6s0.2-1.4,0.9-1.8C79,123.4,81.2,123.4,82.6,124.5z"/>
	<path class="st1" d="M80.1,109.6c-11.7,0-21.2,9.5-21.2,21.2c0,11.7,9.5,21.2,21.2,21.2s21.2-9.5,21.2-21.2
		C101.3,119.1,91.8,109.6,80.1,109.6z M80.1,148.7c-9.7,0-17.8-7.9-17.8-17.8c0-9.7,7.9-17.8,17.8-17.8c9.7,0,17.8,7.9,17.8,17.8
		S89.8,148.7,80.1,148.7z"/>
	<path class="st1" d="M130.2,33.3c0-7.9-21.2-11.1-30.2-12l-0.5,3.4c19.9,2,27.3,6.3,27.3,8.6c0,0.2-0.2,0.7-0.5,0.9l0,0l-0.5,0.9
		c-4.1,3.6-21,8.1-45.8,8.1c-25.1,0-42-4.3-46-8.1l-0.5-0.5l0,0c-0.2-0.2-0.5-0.7-0.5-0.9c0-2.7,10.4-7.4,33-9l-0.2-3.4
		c-17.4,1.1-36.1,5.2-36.1,12.4c0,0.9,0.5,2,0.9,2.9c0,0,0,0.2,0.2,0.2l35.7,44.2v21.2c0,0.5,0.2,0.9,0.7,1.4
		c0.2,0.2,0.7,0.5,1.1,0.5h0.2l23.5-4.5c0.9-0.2,1.4-0.9,1.4-1.6V81.2l35.7-44.2v-0.2C130,35.4,130.2,34.5,130.2,33.3z M90.5,79.1
		c-0.2,0.5-0.5,0.9-0.5,1.4v15.8L70,100.1V80.3c0-0.5-0.2-0.7-0.5-1.1L39.3,41.2c9.5,3.4,25.3,5.2,40.9,5.2s31.4-1.8,40.9-5.2
		L90.5,79.1z"/>
	<polygon class="st1" points="64.8,29.9 72.7,37.6 80.6,29.9 78.1,27.5 74.2,31.3 74.2,20.5 70.9,20.5 70.9,31.3 67.2,27.5 	"/>
	<rect x="70.9" y="13.9" class="st1" width="3.4" height="3.4"/>
	<polygon class="st1" points="95.5,22.3 93,20 89.4,23.6 89.1,12.8 86,12.8 86,23.6 82.1,20 79.7,22.3 87.6,30.2 	"/>
	<rect x="86" y="6.3" class="st1" width="3.4" height="3.4"/>
</g>
<g class="st0">
	<g class="st2">
		<g>
			<path d="M135.8,16.1c-0.9-1.8-2.7-3-4.7-3c-0.8,0-1.6,0.2-2.3,0.5c-2.3,1.1-3.4,3.6-2.8,6.1c0.2,0.6,0,1.3-0.5,1.7L98.2,48.7
				c-0.3,0.3-0.8,0.5-1.3,0.5c-0.2,0-0.3,0-0.5-0.1c-0.4-0.1-0.9-0.2-1.3-0.2c-0.8,0-1.6,0.2-2.3,0.5c-0.7,0.3-1.2,0.8-1.7,1.3
				c-0.4,0.4-0.9,0.6-1.4,0.6c-0.1,0-0.2,0-0.3,0l-30.6-5.4c-0.6-0.1-1.2-0.6-1.4-1.2c-0.8-2-2.7-3.4-4.9-3.4
				c-0.8,0-1.6,0.2-2.3,0.5c-2.3,1.1-3.4,3.6-2.8,6.1c0.2,0.6,0,1.3-0.5,1.7L33.9,63c-0.3,0.3-0.8,0.5-1.3,0.5c-0.2,0-0.3,0-0.5-0.1
				c-0.4-0.1-0.9-0.2-1.3-0.2c-0.8,0-1.6,0.2-2.3,0.5c-2.6,1.3-3.7,4.4-2.5,7c0.9,1.8,2.7,3,4.7,3c0.8,0,1.6-0.2,2.3-0.5
				c2.3-1.1,3.4-3.6,2.8-6.1c-0.2-0.6,0-1.3,0.5-1.7l13.1-13.1c0.3-0.3,0.8-0.5,1.3-0.5c0.1,0,0.3,0,0.5,0.1
				c0.4,0.1,0.9,0.2,1.3,0.2c0.8,0,1.6-0.2,2.3-0.5c0.7-0.3,1.2-0.8,1.7-1.3c0.4-0.4,0.9-0.6,1.4-0.6c0.1,0,0.2,0,0.3,0L88.9,55
				c0.6,0.1,1.2,0.6,1.4,1.2c0.8,2.1,2.7,3.4,4.9,3.4c0.8,0,1.6-0.2,2.3-0.5c2.3-1.1,3.4-3.6,2.8-6.1c-0.2-0.6,0-1.3,0.5-1.7L128,24
				c0.3-0.3,0.8-0.5,1.3-0.5c0.2,0,0.3,0,0.5,0.1c0.4,0.1,0.9,0.2,1.3,0.2c0.8,0,1.6-0.2,2.3-0.5c1.3-0.6,2.2-1.7,2.7-3
				C136.5,18.8,136.4,17.4,135.8,16.1z M122.5,95.1C107.9,95.1,96,107,96,121.6c0,14.6,11.9,26.5,26.5,26.5
				c14.6,0,26.5-11.9,26.5-26.5C149,107,137.1,95.1,122.5,95.1z M122.5,143.6c-12.1,0-22-9.9-22-22s9.9-22,22-22
				c12.1,0,22,9.9,22,22S134.6,143.6,122.5,143.6z M134.5,30.9l-4.5,4.5h2c0.7,0,1.4,0.4,1.7,1.1s0.1,1.5-0.4,2l-40,40v14.1
				c0,0.5-0.2,0.9-0.5,1.3l-25.7,25.7c-0.3,0.3-0.8,0.5-1.3,0.5c-0.2,0-0.5,0-0.7-0.1c-0.7-0.3-1.1-0.9-1.1-1.7V78.4L50.4,64.8
				L47.2,68L59,79.8c0.3,0.3,0.5,0.8,0.5,1.3v52.3l38.3-38.3V81.1c0-0.5,0.2-0.9,0.5-1.3l48.9-48.9H134.5z M25.3,35.3h72.9l4.5-4.5
				H10.1l21.2,21.2l3.2-3.2L24.1,38.4c-0.5-0.5-0.7-1.3-0.4-2C23.9,35.8,24.6,35.3,25.3,35.3z"/>
		</g>
	</g>
	<g class="st2">
		<g>
			<path d="M124.8,124c4.4,0,8-3.6,8-8s-3.6-8-8-8h-6.1c-0.9,0-1.7,0.6-1.9,1.6c-0.1,0.2-0.1,0.4-0.1,0.6v9.9h-2.4c-1.1,0-2,0.9-2,2
				c0,1.1,0.9,2,2,2h2.4v1.8h-2.4c-1.1,0-2,0.9-2,2c0,1.1,0.9,2,2,2h2.4v3.5c0,1.1,0.9,2,2,2c1.1,0,2-0.9,2-2v-3.5h6.8
				c1.1,0,2-0.9,2-2c0-1.1-0.9-2-2-2h-6.8V124H124.8z M120.6,111.9h4.2c2.2,0,4.1,1.8,4.1,4.1c0,2.2-1.8,4-4.1,4h-4.2V111.9z"/>
		</g>
	</g>
</g>
<g>
	<g>
		<g>
			<path class="st3" d="M135.8,12.9c-6.3,0-11.2,4.9-11.2,11.2c0,2.7,1.2,5.6,3.1,7.5l0.3,0.3l0.3,0.3l-0.3,0.4l-0.3,0.3l-17.3,23
				l-0.2,0.3l-0.2,0.3l-0.3-0.1l-0.4-0.1c-1.4-0.6-2.4-0.8-3.6-0.8c-2.8,0-5.5,1.1-7.9,3.2l-0.2,0.2L97.3,59L97,58.9l-0.3-0.1
				L71.5,46.9l-0.4-0.2l-0.4-0.2l0.1-0.4l0.1-0.4c0.3-1.4,0.5-2.6,0.5-3.5c0-6.3-4.9-11.2-11.2-11.2c-6.3,0-11.2,4.9-11.2,11.2
				c0,2.5,0.7,4.6,2.3,6.8l0.3,0.3l0.3,0.3L51.7,50l-0.3,0.3l-21.6,23l-0.2,0.2l-0.2,0.2l-0.3-0.1l-0.3-0.1
				c-1.7-0.6-3.3-1.1-4.8-1.1c-6.3,0-11.2,4.9-11.2,11.2c0,6.3,4.9,11.2,11.2,11.2c6.3,0,11.2-4.9,11.2-11.2c0-2.9-1.3-5.3-2.4-6.8
				l-0.2-0.3l-0.2-0.3l0.3-0.3l0.3-0.3l21.6-23l0.2-0.3l0.3-0.3l0.3,0.2l0.3,0.2c1.4,0.7,3,1,5,1c2.8,0,5.5-1.1,7.8-3.2l0.3-0.2
				l0.3-0.2l0.3,0.1l0.3,0.1l25,11.9l0.4,0.2l0.4,0.2l-0.1,0.4L95,63.2c-0.4,1.4-0.5,2.6-0.5,3.5c0,6.3,4.9,11.2,11.2,11.2
				c6.3,0,11.2-4.9,11.2-11.2c0-3-1.2-5.8-3.1-7.5l-0.3-0.3l-0.4-0.3l0.3-0.4l0.3-0.4l17.6-23l0.3-0.3l0.3-0.3l0.4,0.2l0.4,0.2
				c1,0.5,2.2,0.7,3.5,0.7c6.3,0,11.2-4.9,11.2-11.2C147.2,17.9,142.1,12.9,135.8,12.9z M24,91.2c-4.2,0-7.5-3.3-7.5-7.5
				c0-4.2,3.3-7.5,7.5-7.5c4.2,0,7.5,3.3,7.5,7.5C31.5,87.9,28.2,91.2,24,91.2z M60.3,50.1c-4.2,0-7.5-3.3-7.5-7.5
				c0-4.2,3.3-7.5,7.5-7.5c4.2,0,7.5,3.3,7.5,7.5C67.8,46.8,64.5,50.1,60.3,50.1z M105.4,74.5c-4.2,0-7.5-3.3-7.5-7.5
				c0-4.1,3.4-7.5,7.5-7.5c4.2,0,7.5,3.3,7.5,7.5C112.9,71.2,109.6,74.5,105.4,74.5z M135.8,31.6c-4.2,0-7.5-3.3-7.5-7.5
				c0-4.1,3.4-7.5,7.5-7.5c4.2,0,7.5,3.3,7.5,7.5C143.3,28.3,140,31.6,135.8,31.6z"/>
		</g>
	</g>
	<g>
		<path class="st3" d="M145.1,74.2H125c-1.3,0-2.1,0.8-2.1,2.1v66.9h-11.4V93c0-1.3-0.8-2.1-2.1-2.1H89.2c-1.3,0-2.1,0.8-2.1,2.1
			v50.1H72.3v-33.4c0-1.3-0.8-2.1-2.1-2.1H50.1c-1.3,0-2.1,0.8-2.1,2.1v33.4H36.8v-19.5c0-1.3-0.8-2.1-2.1-2.1H14.6
			c-1.3,0-2.1,0.8-2.1,2.1v21.6c0,1.3,0.8,2.1,2.1,2.1h130.5c1.3,0,2.1-0.8,2.1-2.1v-69C147.2,75,146.4,74.2,145.1,74.2z
			 M32.7,143.2h-16v-17.4h16V143.2z M68.4,143.2h-16v-31.3h16V143.2z M107.3,143.2h-16v-48h16V143.2z M143,143.2h-16V78.4h16V143.2z
			"/>
	</g>
</g>
</svg>
