<?xml version="1.0" encoding="utf-8"?>
<!-- Generator: Adobe Illustrator 19.0.1, SVG Export Plug-In . SVG Version: 6.00 Build 0)  -->
<svg version="1.1" id="Слой_1" xmlns="http://www.w3.org/2000/svg" xmlns:xlink="http://www.w3.org/1999/xlink" x="0px" y="0px"
	 viewBox="0 0 160 160" style="enable-background:new 0 0 160 160;" xml:space="preserve">
<style type="text/css">
	.st0{fill:#659FDA;stroke:#659FDA;stroke-width:0.5;stroke-miterlimit:10;}
</style>
<g>
	<path class="st0" d="M71,74.3l-21.4,2.9l15.6,15l-3.7,21.2l19-10.1l19,10.1l-3.7-21.2l15.6-15L90,74.3l-9.5-19.6L71,74.3z
		 M104.1,79.5L92.2,91l2.9,16.3l-14.5-7.7L66,107.3L68.8,91L56.9,79.5l16.3-2.2l7.3-15l7.3,15L104.1,79.5z"/>
	<polygon class="st0" points="112.9,69.2 106.1,54.6 98.6,70.1 101.5,71.4 106.1,62.4 110.7,72.3 121.7,73.8 113.8,81.3 115.8,92.3 
		106.7,87.5 105.2,90.3 120.2,98.5 117.3,82.6 129,71.4 	"/>
	<polygon class="st0" points="55.8,90.3 54.3,87.5 45.3,92.3 47.3,81.3 39.3,73.8 50.3,72.3 55,62.4 59.6,71.4 62.5,70.1 55,54.6 
		48.1,69.2 32,71.4 43.7,82.6 40.9,98.5 	"/>
	<path class="st0" d="M36.2,36.8c9.7-9.9,22.5-16.3,36.1-18.1c1.1,3.5,4.2,6.4,8.2,6.4c4.6,0,8.6-3.7,8.6-8.6s-3.7-8.6-8.6-8.6
		c-4.4,0-7.9,3.3-8.4,7.5c-14.5,1.8-28.2,8.6-38.3,19L36.2,36.8z M80.5,11.2c2.9,0,5.3,2.4,5.3,5.3s-2.4,5.3-5.3,5.3
		c-2.9,0-5.3-2.4-5.3-5.3C75.2,13.4,77.7,11.2,80.5,11.2z"/>
	<path class="st0" d="M17.9,98.5l3.1-0.9c-1.8-5.7-2.4-11.5-2.4-17.4c0-8.2,1.5-16.3,4.6-23.8c0.7,0.2,1.5,0.2,2.2,0.2
		c3.1,0,5.9-1.5,7.5-4.2c2.4-4.2,0.9-9.3-3.1-11.7c-1.3-0.7-2.9-1.1-4.4-1.1c-3.1,0-5.9,1.5-7.5,4.2c-0.9,1.8-1.3,4.2-0.7,6.4
		c0.4,1.8,1.5,3.3,3.1,4.4c-3.3,7.9-5.1,16.5-5.1,25.3C15.3,86.2,16.2,92.5,17.9,98.5z M21,45.4c0.9-1.5,2.6-2.6,4.6-2.6
		c0.9,0,1.8,0.2,2.6,0.7c2.4,1.5,3.3,4.6,2,7.3c-1.5,2.4-4.8,3.3-7.3,1.8c-1.3-0.7-2-1.8-2.4-3.3C20.1,48,20.4,46.5,21,45.4z"/>
	<path class="st0" d="M31.2,117.4c1.1-1.1,1.8-2.2,2.2-3.7c0.7-2.2,0.2-4.4-0.9-6.4c-1.5-2.6-4.4-4.4-7.5-4.4
		c-1.5,0-2.9,0.4-4.2,1.1c-4,2.2-5.3,7.5-3.1,11.7c1.5,2.6,4.4,4.4,7.5,4.4c1.1,0,2.2-0.2,3.3-0.7c8.6,11.2,20.5,19.6,34.2,23.4
		l0.9-3.1C50.8,136,39.3,128,31.2,117.4z M20.6,113.9c-0.7-1.3-0.9-2.6-0.4-4c0.4-1.3,1.3-2.4,2.4-3.1c0.9-0.4,1.8-0.7,2.6-0.7
		c2,0,3.7,1.1,4.6,2.6c0.7,1.3,0.9,2.6,0.4,4c-0.4,1.3-1.3,2.4-2.4,3.1C25.4,117.4,22.1,116.3,20.6,113.9z"/>
	<path class="st0" d="M124.4,123.6c-9.7,9.7-22.3,15.9-35.7,17.6c-0.4-1.3-1.1-2.6-2.2-3.7c-1.5-1.5-3.7-2.6-6.2-2.6
		c-4.6,0-8.6,3.7-8.6,8.4c0,4.6,3.7,8.6,8.4,8.6l0,0c4.4,0,7.9-3.3,8.4-7.5c14.3-1.8,27.5-8.4,37.9-18.7L124.4,123.6z M80.5,148.7
		v1.8V148.7c-2.9,0-5.3-2.4-5.3-5.3c0-2.9,2.4-5.3,5.3-5.3c1.3,0,2.6,0.7,3.7,1.5c0.9,1.1,1.5,2.4,1.5,3.7
		C85.8,146.5,83.4,148.7,80.5,148.7z"/>
	<path class="st0" d="M130.1,43c-1.1,1.1-1.8,2.2-2.2,3.7c-0.7,2.2-0.4,4.4,0.7,6.6c1.5,2.6,4.4,4.4,7.5,4.4c1.5,0,2.9-0.4,4.2-1.1
		c2-1.1,3.5-2.9,4-5.1c0.7-2.2,0.4-4.4-0.7-6.6c-1.5-2.6-4.4-4.4-7.5-4.4c-1.1,0-2.2,0.2-3.1,0.7c-9-12.1-22-20.9-36.6-24.5
		l-0.9,3.3C109.4,23.4,121.7,31.5,130.1,43z M140.7,46.5c0.7,1.3,0.9,2.6,0.4,4c-0.4,1.3-1.3,2.4-2.4,3.1c-2.4,1.3-5.7,0.4-7.1-2
		c-0.7-1.3-0.9-2.6-0.4-4c0.4-1.3,1.3-2.4,2.4-3.1c0.9-0.4,1.8-0.7,2.6-0.7C138,43.8,139.8,45,140.7,46.5z"/>
	<path class="st0" d="M140.5,105.8c3.5-8.2,5.3-16.7,5.3-25.8c0-5.5-0.7-11.2-2.2-16.5l-3.3,0.9c1.3,5.1,2,10.4,2,15.6
		c0,8.4-1.8,16.5-5.1,24.2c-0.7-0.2-1.5-0.2-2.4-0.2c-3.1,0-5.7,1.5-7.3,4.2c-1.1,2-1.5,4.2-0.9,6.4c0.7,2.2,2,4.2,4,5.3
		c1.3,0.9,2.9,1.1,4.4,1.1c3.1,0,5.7-1.5,7.3-4.2c1.1-2,1.5-4.2,0.9-6.4C143.1,108.6,142,107.1,140.5,105.8z M139.6,115.2
		c-0.9,1.5-2.6,2.6-4.6,2.6c-0.9,0-1.8-0.2-2.6-0.7c-1.1-0.7-2-1.8-2.4-3.3c-0.4-1.3-0.2-2.9,0.7-4c0.9-1.5,2.6-2.6,4.6-2.6
		c0.9,0,1.8,0.2,2.6,0.7c1.1,0.7,2,1.8,2.4,3.3C140.7,112.6,140.5,113.9,139.6,115.2z"/>
</g>
</svg>
